<?xml version="1.0" encoding="UTF-8" standalone="no"?>
<svg width="640" xmlns="http://www.w3.org/2000/svg" height="480">
 <g id="svg_1">
  <g id="svg_308">
   <g id="svg_309">
    <path id="svg_310" stroke-linejoin="round" d="m240.55 195.91s-22.009-13.629 2.2017-34.328c24.204-20.692 47.531-35.212 47.531-35.212l-6.1556-8.365s-48.407 29.932-49.306 31.243c-0.87602 1.3408-31.692 18.497-31.692 18.497l12.327 26.847 25.095 1.318h0.000061z" stroke="#fff" stroke-linecap="round" stroke-width="6" fill="#00c600"/>
    <g id="svg_311">
     <g stroke-linejoin="round" stroke="#fff" stroke-linecap="round" stroke-width="6" fill="#00c600">
      <path id="svg_312" d="m142.83 141.25s-8.4335-3.1159-19.534-1.7675c-11.092 1.3332-18.216 1.7675-21.308 4.4491-3.1084 2.6512-23.541 11.984-23.541 11.984s-5.3252 4.4415-6.209 7.085c-0.89888 2.6817-0.89888 9.7668-0.89888 9.7668l33.742 6.666 37.749-38.183z"/>
      <path id="svg_313" d="m57.161 323.74s-13.782 9.3326-15.572 18.657c-1.7675 9.3249-3.5425 23.518-0.86849 26.626 2.6588 3.1312 15.084 6.6737 23.975 0.89902 8.883-5.7442 2.217-23.967 2.217-23.967l-9.7515-22.215z"/>
      <path id="svg_314" d="m146.84 360.59s-6.209 18.657-17.774 20.432c-11.542 1.7752-26.649 4.4415-28.858 2.2246-2.2246-2.2246-5.7824-10.216-4.4491-12.875 1.3332-2.6511 17.766-13.332 21.766-16.425 3.992-3.1158 11.976-12.433 11.976-12.433l17.339 19.076z"/>
      <path id="svg_315" d="m74.02 299.33s-12.433 15.077-14.208 24.402c-1.7903 9.3326-8.4335 39.966 0 45.741 8.4259 5.7595 23.541 5.3252 26.634 4.8606 3.1007-0.42664 3.5654-3.5427 14.208-6.6357 10.643-3.116 28.858-26.207 28.858-26.207l-15.092-26.649-26.649-20.852-13.751 5.3405z"/>
      <path id="svg_316" d="m30.946 256.25s-13.332 12.875-18.2 22.657c-4.8909 9.7667-6.209 30.192-4.4491 31.944 1.7827 1.7903 13.766-2.6512 18.215-7.5423 4.434-4.868 11.991-35.524 11.991-35.524l-7.5574-11.534z"/>
      <path id="svg_317" d="m31.372 271.78s-18.627 37.741-15.953 53.298c2.6512 15.526 2.6512 18.193 2.6512 18.193l15.526 8.883s10.65-3.1006 16.014-4.8757c5.3178-1.7903 31.075-48.841 31.075-48.841l2.674-7.55-51.988-19.107h-0.000071z"/>
      <path id="svg_318" d="m42.038 217.18s-37.543 35.326-3.5349 65.267c18.657 16.425 41.733 10.65 41.733 10.65l1.7599-53.283-39.958-22.634z"/>
      <path id="svg_319" d="m153.49 300.67s-7.5497 23.518-13.332 29.727c-5.7671 6.2014-15.526 12.875-24.409 10.209-8.8982-2.6588-8.4334-27.959-5.7822-39.935 2.6817-11.999 43.524 0 43.524 0z"/>
      <path id="svg_320" d="m112.65 171.89s-43.074-4.8834-47.95-3.5578c-4.891 1.3484-24.882 7.1308-27.525 26.207-2.674 19.084 9.7743 30.199 9.7743 30.199s12.86 13.309 20.402 13.751c7.5421 0.44948 19.092-3.1159 19.092-3.1159l26.207-63.484z"/>
      <path id="svg_321" d="m160.15 285.57s-27.967 48.4-67.933 19.96c-39.936-28.409-27.51-50.609-12.86-77.243 14.642-26.649 25.316-22.642 25.316-22.642l60.81 6.6584 5.7747 50.167-11.108 23.099z"/>
      <path id="svg_322" d="m252.07 244.28s2.6512 28.394-3.5579 38.168c-6.2088 9.7592-13.759 18.223-28.874 15.998-15.077-2.2246 0.90657-64.832 0.90657-64.832l31.525 10.666z"/>
      <path id="svg_323" d="m229.85 246.92s0.88373 43.973-6.6812 54.616c-7.5346 10.673-32.386 15.115-32.386 15.115l-3.535-52.407 42.602-17.324z"/>
      <path id="svg_324" d="m201.02 277.55s5.2947 38.633 0.86852 48.407c-4.4414 9.759-7.0927 16.433-20.425 23.091-13.309 6.6661-20.867 8.4411-27.533 8.883-6.6661 0.43433-10.65 2.2245-14.65-0.44186-3.9921-2.6664-11.991-13.347-10.209-24.432 1.7675-11.092 25.758-49.725 25.758-49.725l46.19-5.7824z"/>
      <path id="svg_325" d="m227.19 239.38s-2.6741 21.324-15.549 37.3-23.076 19.983-31.951 22.192c-8.8678 2.2245-31.075 1.798-31.075 1.798s-7.984-43.082 4.4339-67.941c12.426-24.851 18.642-35.082 18.642-35.082l35.083 2.6664 20.417 39.067z"/>
      <path id="svg_326" d="m165.92 138.59l-29.293-0.4571-7.9991 5.3405-7.9766 7.1079s-2.6664-0.46471-5.767 1.318c-3.1161 1.7751-7.5575 2.6512-10.658 7.5498-3.1158 4.891-7.1231 8.4411-10.666 13.774s-11.092 15.526-11.092 15.526h-2.674s-8.007 6.6737-8.007 8.4412c0 1.7827-2.2016 10.666 0.90668 12.875 3.1083 2.2246 9.7743 8.8678 9.7743 8.8678s10.201 11.565 42.183 10.231c31.951-1.3408 48.384-19.099 48.384-19.099l11.557-12.441-18.673-59.035z"/>
      <path id="svg_327" d="m226.75 183.43s37.749 0 39.951 29.3c2.2474 29.315-13.324 41.749-13.324 41.749l-36.842 1.7674s-18.2-17.309-19.533-31.974c-1.3409-14.642 2.2322-37.269 29.75-40.842z"/>
      <path id="svg_328" d="m210.33 168.33s4.868-15.983 3.0931-21.743c-1.7828-5.7671-7.9766-14.216-17.301-21.324-9.3401-7.0851-19.541-10.186-25.293-9.7591-5.79 0.4571-12.883 0.89135-12.883 0.89135s-3.5577 17.758-3.1158 21.75c0.43422 4.0072 27.518 24.866 27.518 24.866l27.982 5.3176z"/>
      <g id="svg_329">
       <path id="svg_330" d="m213.42 163.45s-13.302-18.642-22.642-19.975c-9.3249-1.3332-31.098 0-31.098 0l-12.426 15.542s0.90657 19.983 5.7823 26.626c4.8987 6.6584 3.5425 16.448 12.426 16.882 8.8906 0.42664 16.875 4.4415 18.657 4.891 1.7675 0.45708 7.5421 2.2169 7.5421 2.2169h18.216s4.8682-0.89136 7.0774-3.9844c2.2322-3.1159 6.2013-7.1155 6.2013-11.549 0-4.4491-0.41144-7.9916-1.7445-13.782-1.3409-5.7595-5.3253-8.8754-5.3253-8.8754l-2.6664-7.9916z"/>
       <line id="svg_331" y1="185.64" x2="215.64" x1="216.1" y2="167.01"/>
      </g>
     </g>
    </g>
    <path id="svg_332" stroke-linejoin="round" d="m256.78 146.5s-3.6568 13.98-0.28189 25.217c3.3368 11.229 8.7916 20.958 8.7916 20.958s-23.373-19.747-22.756-24.607c0.60184-4.8529 0.60184-13.652 0.60184-13.652" stroke="#fff" stroke-linecap="round" stroke-width="6" fill="#00c600"/>
   </g>
   <g id="svg_333">
    <path id="svg_334" stroke-linejoin="round" d="m301.89 170.24s25.537 4.251 20.981-27.266c-4.5557-31.517-12.509-57.823-12.509-57.823l10.125-2.2322s16.669 54.441 16.448 56.003c-0.17511 1.5846 11.664 34.808 11.664 34.808l-26.946 12.06-19.762-15.549z" stroke="#fff" stroke-linecap="round" stroke-width="6" fill="#00c600"/>
    <g id="svg_335">
     <g stroke-linejoin="round" stroke="#fff" stroke-linecap="round" stroke-width="6" fill="#00c600">
      <path id="svg_336" d="m252.11 193.55s-8.3954 3.2226-15.869 11.565c-7.4583 8.304-12.532 13.317-13.096 17.347-0.57895 4.0682-9.7971 24.539-9.7971 24.539s-1.0971 6.8565 0.007538 9.4315c1.1046 2.6131 5.7824 7.9536 5.7824 7.9536l29.757-17.24 3.215-53.595h-0.000092z"/>
      <path id="svg_337" d="m307.98 387.26s-4.2206 16.113 0.57892 24.28c4.8225 8.1745 12.86 20.013 16.913 20.615 4.0302 0.58676 15.747-4.9519 18.589-15.138 2.8873-10.201-14.124-19.51-14.124-19.51l-21.956-10.247z"/>
      <path id="svg_338" d="m399.7 355.85s7.6184 18.109 0.083832 27.06c-7.4965 8.9439-17.088 20.905-20.234 20.699-3.1159-0.20578-11.031-3.8626-11.808-6.7651-0.76941-2.8798 4.5711-21.72 5.5309-26.687 0.92181-4.9748 0.80765-17.248 0.80765-17.248l25.62 2.9406z"/>
      <path id="svg_339" d="m304.54 357.78s0.60947 19.533 5.4243 27.723c4.8149 8.1973 20.006 35.623 30.138 34.397 10.155-1.2419 21.209-11.496 23.236-13.904 2.0646-2.377 0.33533-4.99 6.3156-14.361 5.9652-9.3554 4.4262-38.716 4.4262-38.716l-28.919-10.087-33.795 1.8665-6.826 13.081z"/>
      <path id="svg_340" d="m243.76 353.78s-1.5313 18.459 1.2418 29.026c2.7882 10.567 15.237 26.794 17.736 26.969 2.4988 0.16006 8.5936-11.062 8.723-17.675 0.11426-6.6203-14.422-34.61-14.422-34.61l-13.279-3.7101z"/>
      <path id="svg_341" d="m254.35 365.17s10.833 40.674 23.091 50.609c12.258 9.9268 14.018 11.915 14.018 11.915l17.538-3.5654s5.95-9.3477 8.8069-14.193c2.8111-4.853-8.845-57.214-8.845-57.214l-2.9712-7.4355-51.637 19.884z"/>
      <path id="svg_342" d="m226.36 317.08s-4.9596 51.302 40.347 51.432c24.874 0.053345 38.419-19.518 38.419-19.518l-33.795-41.238-44.971 9.3247z"/>
      <path id="svg_343" d="m365.18 306.38s9.8429 22.68 9.5991 31.167c-0.22855 8.464-3.1997 19.922-11.618 23.777-8.4412 3.8396-24.798-15.488-30.71-26.261-5.8966-10.757 32.728-28.683 32.728-28.683z"/>
      <path id="svg_344" d="m249.58 236.5s-35.585 24.706-38.381 28.934c-2.8035 4.2282-14.018 21.75-3.4434 37.848 10.59 16.113 27.236 16.265 27.236 16.265s18.482 1.5236 24.455-3.1159c5.9575-4.6397 12.296-14.917 12.296-14.917l-22.162-65.015z"/>
      <path id="svg_345" d="m360.25 290.65s10.856 54.822-37.917 59.804c-48.796 4.9748-54.075-19.914-60.612-49.58-6.5365-29.704 4.0987-33.726 4.0987-33.726l50.144-35.09 37.414 33.917 6.8718 24.676z"/>
      <path id="svg_346" d="m402.14 199.02s20.722 19.602 22.482 31.03c1.7523 11.45 1.6609 22.771-11.176 31.045-12.799 8.2888-42.046-49.314-42.046-49.314l30.74-12.761h-0.000092z"/>
      <path id="svg_347" d="m387.21 215.65s29.628 32.47 30.976 45.451c1.3484 12.997-14.422 32.713-14.422 32.713l-37.223-37.048 20.669-41.116z"/>
      <path id="svg_348" d="m385.7 257.7s29.46 25.537 32.561 35.814c3.0854 10.277 5.485 17.042-0.12967 30.809-5.6375 13.797-10.155 20.12-14.84 24.851-4.7233 4.7083-6.567 8.6697-11.328 9.2945-4.7538 0.63232-17.812-2.1028-23.777-11.595-5.9954-9.5306-13.4-54.388-13.4-54.388l30.915-34.785h-0.000061z"/>
      <path id="svg_349" d="m380.2 211.72s12.06 17.789 12.928 38.29c0.83804 20.509-4.2129 30.245-9.4391 37.757-5.2034 7.527-22.162 21.827-22.162 21.827s-34.42-27.114-41.451-53.991c-7.0319-26.9-9.104-38.663-9.104-38.663l28.127-21.141 41.101 15.922v0.000076z"/>
      <path id="svg_350" d="m267.69 176.32l-22.329 18.985-2.4988 9.2792-1.3104 10.605s-2.3083 1.4246-3.4739 4.8224c-1.158 3.3673-3.9234 6.986-3.0322 12.707 0.87611 5.6985 0.2133 11.001 1.0513 17.347 0.83803 6.3461 1.897 19.023 1.897 19.023l-1.9961 1.7446s-1.6227 10.285-0.43419 11.626c1.1428 1.3332 5.3558 9.462 9.1496 9.0888 3.794-0.38092 13.187 0.24377 13.187 0.24377s15.298 1.935 38.458-20.143c23.175-22.063 23.8-46.251 23.8-46.251l0.4876-16.951-52.955-32.126z"/>
      <path id="svg_351" d="m342.99 169.93s28.386-24.866 49.359-4.2815c21.019 20.577 17.507 40.164 17.507 40.164l-26.535 25.643s-25.118-1.0361-35.761-11.184c-10.681-10.125-22.924-29.498-4.5709-50.342z"/>
      <path id="svg_352" d="m320.71 169.43s-6.8641-15.244-12.022-18.414c-5.127-3.1769-15.374-5.4167-27.068-4.6015-11.702 0.79993-21.415 5.1729-25.468 9.3325-4.0454 4.1367-9.0963 9.1573-9.0963 9.1573s9.043 15.694 11.999 18.398c2.9788 2.7274 37.102 0.57138 37.102 0.57138l24.554-14.444z"/>
      <g id="svg_353">
       <path id="svg_354" d="m319.81 163.7s-22.307-5.2415-30.207-0.091431c-7.8775 5.1424-23.358 20.493-23.358 20.493l0.8989 19.884s13.843 14.444 21.895 16.212c8.0679 1.7979 13.5 10.018 20.47 4.5177 6.9784-5.5385 15.602-7.8012 17.24-8.6392 1.6456-0.82278 7.1461-3.3216 7.1461-3.3216l13.698-11.999s3.0854-3.8702 2.7121-7.6641c-0.38083-3.8092-0.030457-9.4544-2.9482-12.791-2.9254-3.3368-5.5995-5.7137-10.422-9.1496-4.7843-3.4892-9.8506-3.1768-9.8506-3.1768l-7.2755-4.2739z"/>
       <line id="svg_355" y1="178.64" x2="323.83" x1="336.46" y2="164.92"/>
      </g>
     </g>
    </g>
    <path id="svg_356" stroke-linejoin="round" d="m322.25 122.39s-6.4604 12.906-16.38 19.16c-9.9115 6.2166-20.425 9.942-20.425 9.942s30.588 0.57138 33.33-3.5045c2.735-4.0377 8.5554-10.666 8.5554-10.666" stroke="#fff" stroke-linecap="round" stroke-width="6" fill="#00c600"/>
   </g>
   <g id="svg_357">
    <path id="svg_358" stroke-linejoin="round" d="m399.24 195.91s22.01-13.629-2.2093-34.328c-24.219-20.692-47.539-35.212-47.539-35.212l6.1633-8.365s48.422 29.932 49.321 31.243c0.86087 1.3408 31.662 18.497 31.662 18.497l-12.304 26.847-25.095 1.318z" stroke="#fff" stroke-linecap="round" stroke-width="6" fill="#00c600"/>
    <g id="svg_359">
     <g stroke-linejoin="round" stroke="#fff" stroke-linecap="round" stroke-width="6" fill="#00c600">
      <path id="svg_360" d="m496.95 141.25s8.4259-3.1159 19.534-1.7675c11.085 1.3332 18.2 1.7675 21.301 4.4491 3.1085 2.6512 23.548 11.984 23.548 11.984s5.3251 4.4415 6.2087 7.085c0.89136 2.6817 0.89136 9.7668 0.89136 9.7668l-33.757 6.666-37.726-38.183z"/>
      <path id="svg_361" d="m582.62 323.74s13.805 9.3326 15.572 18.657c1.7672 9.3249 3.5502 23.518 0.87579 26.626-2.6509 3.1312-15.1 6.6737-23.967 0.89902-8.8753-5.7442-2.232-23.967-2.232-23.967l9.7513-22.215z"/>
      <path id="svg_362" d="m492.95 360.59s6.2014 18.657 17.774 20.432c11.542 1.7752 26.641 4.4415 28.858 2.2246 2.2169-2.2246 5.7593-10.216 4.4414-12.875-1.3332-2.6511-17.766-13.332-21.758-16.425-3.9919-3.1158-11.968-12.433-11.968-12.433l-17.347 19.076z"/>
      <path id="svg_363" d="m565.76 299.33s12.433 15.077 14.231 24.402c1.7448 9.3326 8.4109 39.966 0 45.741-8.4562 5.7595-23.571 5.3252-26.649 4.8606-3.1158-0.42664-3.5806-3.5427-14.216-6.6357-10.635-3.116-28.843-26.207-28.843-26.207l15.084-26.649 26.634-20.852 13.759 5.3405z"/>
      <path id="svg_364" d="m608.84 256.25s13.332 12.875 18.2 22.657c4.8909 9.7667 6.2013 30.192 4.4644 31.944-1.8133 1.7903-13.774-2.6512-18.238-7.5423-4.4262-4.868-11.984-35.524-11.984-35.524l7.5574-11.534z"/>
      <path id="svg_365" d="m608.41 271.78s18.627 37.741 15.953 53.298c-2.6514 15.526-2.6514 18.193-2.6514 18.193l-15.518 8.883s-10.681-3.1006-16.014-4.8757c-5.3178-1.7903-31.075-48.841-31.075-48.841l-2.6815-7.55 51.987-19.107z"/>
      <path id="svg_366" d="m597.74 217.18s37.551 35.326 3.5425 65.267c-18.657 16.425-41.726 10.65-41.726 10.65l-1.7673-53.283 39.951-22.634z"/>
      <path id="svg_367" d="m486.3 300.67s7.5497 23.518 13.317 29.727c5.7671 6.2014 15.526 12.875 24.417 10.209 8.8908-2.6588 8.426-27.959 5.7824-39.935-2.6816-11.999-43.516 0-43.516 0z"/>
      <path id="svg_368" d="m527.14 171.89s43.059-4.8834 47.973-3.5578c4.8908 1.3484 24.859 7.1308 27.502 26.207 2.6818 19.084-9.7743 30.199-9.7743 30.199s-12.844 13.309-20.402 13.751c-7.5649 0.44948-19.092-3.1159-19.092-3.1159l-26.207-63.484z"/>
      <path id="svg_369" d="m479.64 285.57s27.959 48.4 67.925 19.96c39.943-28.409 27.54-50.609 12.867-77.243-14.635-26.649-25.316-22.642-25.316-22.642l-60.802 6.6584-5.7899 50.167 11.115 23.099z"/>
      <path id="svg_370" d="m387.72 244.28s-2.6512 28.394 3.5503 38.168c6.2165 9.7592 13.766 18.223 28.874 15.998 15.077-2.2246-0.91418-64.832-0.91418-64.832l-31.51 10.666z"/>
      <path id="svg_371" d="m409.93 246.92s-0.88376 43.973 6.6508 54.616c7.5498 10.673 32.416 15.115 32.416 15.115l3.5425-52.407-42.61-17.324z"/>
      <path id="svg_372" d="m438.77 277.55s-5.31 38.633-0.87613 48.407c4.4644 9.759 7.1079 16.433 20.44 23.091 13.309 6.6661 20.852 8.4411 27.518 8.883 6.6661 0.43433 10.651 2.2245 14.665-0.44186 3.992-2.6664 11.984-13.347 10.208-24.432-1.7751-11.092-25.758-49.725-25.758-49.725l-46.198-5.7824h-0.000061z"/>
      <path id="svg_373" d="m412.58 239.38s2.6816 21.324 15.549 37.3c12.875 15.983 23.091 19.983 31.959 22.192 8.8678 2.2245 31.083 1.798 31.083 1.798s7.9765-43.082-4.4339-67.941c-12.426-24.851-18.657-35.082-18.657-35.082l-35.075 2.6664-20.425 39.067z"/>
      <path id="svg_374" d="m473.87 138.59l29.292-0.4571 7.9766 5.3405 8.0296 7.1079s2.6588-0.46471 5.7442 1.318c3.1159 1.7751 7.5574 2.6512 10.666 7.5498 3.1008 4.891 7.1157 8.4411 10.65 13.774s11.1 15.526 11.1 15.526h2.674s7.9841 6.6737 7.9841 8.4412c0 1.7827 2.217 10.666-0.86841 12.875-3.1158 2.2246-9.7822 8.8678-9.7822 8.8678s-10.208 11.565-42.183 10.231c-31.944-1.3408-48.384-19.099-48.384-19.099l-11.557-12.441 18.657-59.035z"/>
      <path id="svg_375" d="m413.02 183.43s-37.734 0-39.936 29.3c-2.2474 29.315 13.302 41.749 13.302 41.749l36.85 1.7674s18.216-17.309 19.549-31.974c1.3103-14.642-2.2322-37.269-29.765-40.842z"/>
      <path id="svg_376" d="m429.46 168.33s-4.8757-15.983-3.1082-21.743c1.7751-5.7671 7.9915-14.216 17.316-21.324 9.3403-7.0851 19.518-10.186 25.285-9.7591 5.7975 0.4571 12.883 0.89135 12.883 0.89135s3.5578 17.758 3.1159 21.75c-0.4343 4.0072-27.525 24.866-27.525 24.866l-27.967 5.3176z"/>
      <g id="svg_377">
       <path id="svg_378" d="m426.35 163.45s13.317-18.642 22.649-19.975 31.098 0 31.098 0l12.418 15.542s-0.88373 19.983-5.7746 26.626c-4.8987 6.6584-3.5427 16.448-12.426 16.882-8.8983 0.42664-16.882 4.4415-18.657 4.891-1.7676 0.45708-7.5422 2.2169-7.5422 2.2169h-18.215s-4.8758-0.89136-7.0852-3.9844c-2.2322-3.1159-6.2317-7.1155-6.2317-11.549 0-4.4491 0.44186-7.9916 1.7826-13.782 1.3332-5.7595 5.3254-8.8754 5.3254-8.8754l2.6587-7.9916z"/>
       <line id="svg_379" y1="185.64" x2="424.14" x1="423.7" y2="167.01"/>
      </g>
     </g>
    </g>
    <path id="svg_380" stroke-linejoin="round" d="m383 146.5s3.6491 13.98 0.28949 25.217c-3.3369 11.229-8.7915 20.958-8.7915 20.958s23.373-19.747 22.764-24.607c-0.62472-4.8529-0.62472-13.652-0.62472-13.652" stroke="#fff" stroke-linecap="round" stroke-width="6" fill="#00c600"/>
   </g>
  </g>
 </g>
</svg>
